<mxfile host="app.diagrams.net" agent="Mozilla/5.0 (Windows NT 10.0; Win64; x64) AppleWebKit/537.36 (KHTML, like Gecko) Chrome/139.0.0.0 Safari/537.36" version="28.1.2">
  <diagram name="Page-1" id="GPvoTxnCGmlLbaN9wA_B">
    <mxGraphModel dx="3126" dy="2309" grid="1" gridSize="10" guides="1" tooltips="1" connect="1" arrows="1" fold="1" page="1" pageScale="1" pageWidth="850" pageHeight="1100" math="0" shadow="0">
      <root>
        <mxCell id="0" />
        <mxCell id="1" parent="0" />
        <mxCell id="wPh2RqfNVkivPKaVuqab-1" value="&lt;b&gt;Guest&lt;/b&gt;" style="rounded=1;whiteSpace=wrap;html=1;absoluteArcSize=1;arcSize=14;strokeWidth=2;" vertex="1" parent="1">
          <mxGeometry x="130" y="-30" width="100" height="100" as="geometry" />
        </mxCell>
        <mxCell id="wPh2RqfNVkivPKaVuqab-2" value="&lt;b&gt;Admin&lt;/b&gt;" style="rounded=1;whiteSpace=wrap;html=1;absoluteArcSize=1;arcSize=14;strokeWidth=2;" vertex="1" parent="1">
          <mxGeometry x="780" y="60" width="100" height="100" as="geometry" />
        </mxCell>
        <mxCell id="wPh2RqfNVkivPKaVuqab-3" value="&lt;b&gt;Host&lt;/b&gt;" style="rounded=1;whiteSpace=wrap;html=1;absoluteArcSize=1;arcSize=14;strokeWidth=2;" vertex="1" parent="1">
          <mxGeometry x="500" y="160" width="100" height="100" as="geometry" />
        </mxCell>
        <mxCell id="wPh2RqfNVkivPKaVuqab-48" style="rounded=0;orthogonalLoop=1;jettySize=auto;html=1;exitX=0.5;exitY=0;exitDx=0;exitDy=0;exitPerimeter=0;entryX=0.5;entryY=1;entryDx=0;entryDy=0;" edge="1" parent="1" source="wPh2RqfNVkivPKaVuqab-4" target="wPh2RqfNVkivPKaVuqab-15">
          <mxGeometry relative="1" as="geometry" />
        </mxCell>
        <mxCell id="wPh2RqfNVkivPKaVuqab-49" style="rounded=0;orthogonalLoop=1;jettySize=auto;html=1;exitX=0.5;exitY=1;exitDx=0;exitDy=0;exitPerimeter=0;entryX=0.5;entryY=0;entryDx=0;entryDy=0;" edge="1" parent="1" source="wPh2RqfNVkivPKaVuqab-4" target="wPh2RqfNVkivPKaVuqab-11">
          <mxGeometry relative="1" as="geometry" />
        </mxCell>
        <mxCell id="wPh2RqfNVkivPKaVuqab-50" value="&lt;b&gt;Authenticate&lt;br&gt;User&lt;/b&gt;" style="edgeLabel;html=1;align=center;verticalAlign=middle;resizable=0;points=[];" vertex="1" connectable="0" parent="wPh2RqfNVkivPKaVuqab-49">
          <mxGeometry x="0.0095" y="-1" relative="1" as="geometry">
            <mxPoint as="offset" />
          </mxGeometry>
        </mxCell>
        <mxCell id="wPh2RqfNVkivPKaVuqab-4" value="&lt;b&gt;Registration Process&lt;/b&gt;" style="strokeWidth=2;html=1;shape=mxgraph.flowchart.start_2;whiteSpace=wrap;" vertex="1" parent="1">
          <mxGeometry x="-150" y="410" width="100" height="100" as="geometry" />
        </mxCell>
        <mxCell id="wPh2RqfNVkivPKaVuqab-23" style="rounded=0;orthogonalLoop=1;jettySize=auto;html=1;exitX=0.5;exitY=0;exitDx=0;exitDy=0;exitPerimeter=0;entryX=0;entryY=0.5;entryDx=0;entryDy=0;elbow=vertical;" edge="1" parent="1" source="wPh2RqfNVkivPKaVuqab-5" target="wPh2RqfNVkivPKaVuqab-16">
          <mxGeometry relative="1" as="geometry" />
        </mxCell>
        <mxCell id="wPh2RqfNVkivPKaVuqab-24" value="&lt;b&gt;Query Properties&lt;/b&gt;" style="edgeLabel;html=1;align=center;verticalAlign=middle;resizable=0;points=[];" vertex="1" connectable="0" parent="wPh2RqfNVkivPKaVuqab-23">
          <mxGeometry x="0.0059" relative="1" as="geometry">
            <mxPoint as="offset" />
          </mxGeometry>
        </mxCell>
        <mxCell id="wPh2RqfNVkivPKaVuqab-27" style="rounded=0;orthogonalLoop=1;jettySize=auto;html=1;exitX=1;exitY=0.5;exitDx=0;exitDy=0;exitPerimeter=0;entryX=0.75;entryY=1;entryDx=0;entryDy=0;" edge="1" parent="1" source="wPh2RqfNVkivPKaVuqab-5" target="wPh2RqfNVkivPKaVuqab-1">
          <mxGeometry relative="1" as="geometry" />
        </mxCell>
        <mxCell id="wPh2RqfNVkivPKaVuqab-28" value="&lt;b&gt;Filtered&lt;br&gt;Properties&lt;/b&gt;" style="edgeLabel;html=1;align=center;verticalAlign=middle;resizable=0;points=[];" vertex="1" connectable="0" parent="wPh2RqfNVkivPKaVuqab-27">
          <mxGeometry x="0.496" y="-2" relative="1" as="geometry">
            <mxPoint as="offset" />
          </mxGeometry>
        </mxCell>
        <mxCell id="wPh2RqfNVkivPKaVuqab-5" value="&lt;b&gt;Search &lt;br&gt;Process&lt;/b&gt;" style="strokeWidth=2;html=1;shape=mxgraph.flowchart.start_2;whiteSpace=wrap;" vertex="1" parent="1">
          <mxGeometry x="230" y="440" width="100" height="100" as="geometry" />
        </mxCell>
        <mxCell id="wPh2RqfNVkivPKaVuqab-32" style="rounded=0;orthogonalLoop=1;jettySize=auto;html=1;exitX=1;exitY=0.5;exitDx=0;exitDy=0;exitPerimeter=0;entryX=0;entryY=1;entryDx=0;entryDy=0;" edge="1" parent="1" source="wPh2RqfNVkivPKaVuqab-6" target="wPh2RqfNVkivPKaVuqab-17">
          <mxGeometry relative="1" as="geometry" />
        </mxCell>
        <mxCell id="wPh2RqfNVkivPKaVuqab-33" value="&lt;b&gt;Store&lt;br&gt;Booking&lt;/b&gt;" style="edgeLabel;html=1;align=center;verticalAlign=middle;resizable=0;points=[];" vertex="1" connectable="0" parent="wPh2RqfNVkivPKaVuqab-32">
          <mxGeometry x="0.0216" relative="1" as="geometry">
            <mxPoint as="offset" />
          </mxGeometry>
        </mxCell>
        <mxCell id="wPh2RqfNVkivPKaVuqab-39" style="rounded=0;orthogonalLoop=1;jettySize=auto;html=1;entryX=1;entryY=0.5;entryDx=0;entryDy=0;exitX=0;exitY=0.7;exitDx=0;exitDy=0;exitPerimeter=0;" edge="1" parent="1" source="wPh2RqfNVkivPKaVuqab-6" target="wPh2RqfNVkivPKaVuqab-11">
          <mxGeometry relative="1" as="geometry">
            <mxPoint x="430" y="610" as="sourcePoint" />
          </mxGeometry>
        </mxCell>
        <mxCell id="wPh2RqfNVkivPKaVuqab-42" style="rounded=0;orthogonalLoop=1;jettySize=auto;html=1;exitX=0.855;exitY=0.145;exitDx=0;exitDy=0;exitPerimeter=0;entryX=0;entryY=1;entryDx=0;entryDy=0;" edge="1" parent="1" source="wPh2RqfNVkivPKaVuqab-6" target="wPh2RqfNVkivPKaVuqab-16">
          <mxGeometry relative="1" as="geometry" />
        </mxCell>
        <mxCell id="wPh2RqfNVkivPKaVuqab-43" value="&lt;b&gt;Check&lt;br&gt;Availability&lt;/b&gt;" style="edgeLabel;html=1;align=center;verticalAlign=middle;resizable=0;points=[];" vertex="1" connectable="0" parent="wPh2RqfNVkivPKaVuqab-42">
          <mxGeometry x="0.0062" y="-2" relative="1" as="geometry">
            <mxPoint x="1" as="offset" />
          </mxGeometry>
        </mxCell>
        <mxCell id="wPh2RqfNVkivPKaVuqab-44" style="rounded=0;orthogonalLoop=1;jettySize=auto;html=1;exitX=0.5;exitY=0;exitDx=0;exitDy=0;exitPerimeter=0;entryX=0.5;entryY=1;entryDx=0;entryDy=0;" edge="1" parent="1" source="wPh2RqfNVkivPKaVuqab-6" target="wPh2RqfNVkivPKaVuqab-3">
          <mxGeometry relative="1" as="geometry" />
        </mxCell>
        <mxCell id="wPh2RqfNVkivPKaVuqab-45" value="&lt;b&gt;Notification&lt;/b&gt;" style="edgeLabel;html=1;align=center;verticalAlign=middle;resizable=0;points=[];" vertex="1" connectable="0" parent="wPh2RqfNVkivPKaVuqab-44">
          <mxGeometry x="0.5572" y="1" relative="1" as="geometry">
            <mxPoint as="offset" />
          </mxGeometry>
        </mxCell>
        <mxCell id="wPh2RqfNVkivPKaVuqab-6" value="&lt;b&gt;Booking&lt;br&gt;Process&lt;/b&gt;" style="strokeWidth=2;html=1;shape=mxgraph.flowchart.start_2;whiteSpace=wrap;" vertex="1" parent="1">
          <mxGeometry x="490" y="540" width="100" height="100" as="geometry" />
        </mxCell>
        <mxCell id="wPh2RqfNVkivPKaVuqab-7" value="&lt;b&gt;Payment&lt;br&gt;Process&lt;/b&gt;" style="strokeWidth=2;html=1;shape=mxgraph.flowchart.start_2;whiteSpace=wrap;" vertex="1" parent="1">
          <mxGeometry x="1020" y="680" width="100" height="100" as="geometry" />
        </mxCell>
        <mxCell id="wPh2RqfNVkivPKaVuqab-54" style="rounded=0;orthogonalLoop=1;jettySize=auto;html=1;exitX=1;exitY=0.5;exitDx=0;exitDy=0;exitPerimeter=0;entryX=0;entryY=0.75;entryDx=0;entryDy=0;" edge="1" parent="1" source="wPh2RqfNVkivPKaVuqab-8" target="wPh2RqfNVkivPKaVuqab-19">
          <mxGeometry relative="1" as="geometry" />
        </mxCell>
        <mxCell id="wPh2RqfNVkivPKaVuqab-55" style="rounded=0;orthogonalLoop=1;jettySize=auto;html=1;exitX=0.5;exitY=1;exitDx=0;exitDy=0;exitPerimeter=0;entryX=1;entryY=0;entryDx=0;entryDy=0;" edge="1" parent="1" source="wPh2RqfNVkivPKaVuqab-8" target="wPh2RqfNVkivPKaVuqab-3">
          <mxGeometry relative="1" as="geometry" />
        </mxCell>
        <mxCell id="wPh2RqfNVkivPKaVuqab-56" value="&lt;b&gt;Review&lt;br&gt;Notification&lt;/b&gt;" style="edgeLabel;html=1;align=center;verticalAlign=middle;resizable=0;points=[];" vertex="1" connectable="0" parent="wPh2RqfNVkivPKaVuqab-55">
          <mxGeometry x="0.0096" y="-2" relative="1" as="geometry">
            <mxPoint as="offset" />
          </mxGeometry>
        </mxCell>
        <mxCell id="wPh2RqfNVkivPKaVuqab-8" value="&lt;b&gt;Review&lt;br&gt;Process&lt;/b&gt;" style="strokeWidth=2;html=1;shape=mxgraph.flowchart.start_2;whiteSpace=wrap;" vertex="1" parent="1">
          <mxGeometry x="560" y="-180" width="100" height="100" as="geometry" />
        </mxCell>
        <mxCell id="wPh2RqfNVkivPKaVuqab-57" style="rounded=0;orthogonalLoop=1;jettySize=auto;html=1;exitX=1;exitY=0.75;exitDx=0;exitDy=0;entryX=0;entryY=0.75;entryDx=0;entryDy=0;" edge="1" parent="1" source="wPh2RqfNVkivPKaVuqab-9" target="wPh2RqfNVkivPKaVuqab-18">
          <mxGeometry relative="1" as="geometry" />
        </mxCell>
        <mxCell id="wPh2RqfNVkivPKaVuqab-9" value="&lt;b&gt;Payment&lt;br&gt;Gateway&lt;/b&gt;" style="rounded=1;whiteSpace=wrap;html=1;absoluteArcSize=1;arcSize=14;strokeWidth=2;" vertex="1" parent="1">
          <mxGeometry x="220" y="840" width="100" height="100" as="geometry" />
        </mxCell>
        <mxCell id="wPh2RqfNVkivPKaVuqab-40" style="rounded=0;orthogonalLoop=1;jettySize=auto;html=1;exitX=1;exitY=0.5;exitDx=0;exitDy=0;entryX=0.373;entryY=1;entryDx=0;entryDy=0;entryPerimeter=0;" edge="1" parent="1" source="wPh2RqfNVkivPKaVuqab-11" target="wPh2RqfNVkivPKaVuqab-1">
          <mxGeometry relative="1" as="geometry" />
        </mxCell>
        <mxCell id="wPh2RqfNVkivPKaVuqab-41" value="&lt;b&gt;Booking&lt;br&gt;Confirmation&lt;/b&gt;" style="edgeLabel;html=1;align=center;verticalAlign=middle;resizable=0;points=[];" vertex="1" connectable="0" parent="wPh2RqfNVkivPKaVuqab-40">
          <mxGeometry x="-0.244" y="5" relative="1" as="geometry">
            <mxPoint as="offset" />
          </mxGeometry>
        </mxCell>
        <mxCell id="wPh2RqfNVkivPKaVuqab-51" style="rounded=0;orthogonalLoop=1;jettySize=auto;html=1;exitX=0.75;exitY=0;exitDx=0;exitDy=0;entryX=0;entryY=1;entryDx=0;entryDy=0;" edge="1" parent="1" source="wPh2RqfNVkivPKaVuqab-11" target="wPh2RqfNVkivPKaVuqab-1">
          <mxGeometry relative="1" as="geometry" />
        </mxCell>
        <mxCell id="wPh2RqfNVkivPKaVuqab-52" value="&lt;b&gt;Verification&lt;br&gt;Email&lt;/b&gt;" style="edgeLabel;html=1;align=center;verticalAlign=middle;resizable=0;points=[];" vertex="1" connectable="0" parent="wPh2RqfNVkivPKaVuqab-51">
          <mxGeometry x="0.0068" y="-3" relative="1" as="geometry">
            <mxPoint as="offset" />
          </mxGeometry>
        </mxCell>
        <mxCell id="wPh2RqfNVkivPKaVuqab-11" value="&lt;b&gt;Email&lt;br&gt;Service&lt;/b&gt;" style="rounded=1;whiteSpace=wrap;html=1;absoluteArcSize=1;arcSize=14;strokeWidth=2;" vertex="1" parent="1">
          <mxGeometry x="-80" y="770" width="100" height="100" as="geometry" />
        </mxCell>
        <mxCell id="wPh2RqfNVkivPKaVuqab-15" value="&lt;b&gt;D1: Users&lt;/b&gt;" style="shape=partialRectangle;whiteSpace=wrap;html=1;bottom=1;right=1;left=1;top=0;fillColor=none;routingCenterX=-0.5;" vertex="1" parent="1">
          <mxGeometry x="-170" y="70" width="120" height="60" as="geometry" />
        </mxCell>
        <mxCell id="wPh2RqfNVkivPKaVuqab-16" value="&lt;b&gt;D2: Properties&lt;/b&gt;" style="shape=partialRectangle;whiteSpace=wrap;html=1;bottom=1;right=1;left=1;top=0;fillColor=none;routingCenterX=-0.5;" vertex="1" parent="1">
          <mxGeometry x="1110" y="240" width="120" height="60" as="geometry" />
        </mxCell>
        <mxCell id="wPh2RqfNVkivPKaVuqab-17" value="&lt;b&gt;D3: Bookings&lt;/b&gt;" style="shape=partialRectangle;whiteSpace=wrap;html=1;bottom=1;right=1;left=1;top=0;fillColor=none;routingCenterX=-0.5;" vertex="1" parent="1">
          <mxGeometry x="1130" y="460" width="120" height="60" as="geometry" />
        </mxCell>
        <mxCell id="wPh2RqfNVkivPKaVuqab-18" value="&lt;b&gt;D4: Payments&lt;/b&gt;" style="shape=partialRectangle;whiteSpace=wrap;html=1;bottom=1;right=1;left=1;top=0;fillColor=none;routingCenterX=-0.5;" vertex="1" parent="1">
          <mxGeometry x="1030" y="940" width="120" height="60" as="geometry" />
        </mxCell>
        <mxCell id="wPh2RqfNVkivPKaVuqab-19" value="&lt;b&gt;D5: Reviews&lt;/b&gt;" style="shape=partialRectangle;whiteSpace=wrap;html=1;bottom=1;right=1;left=1;top=0;fillColor=none;routingCenterX=-0.5;" vertex="1" parent="1">
          <mxGeometry x="1040" y="-40" width="120" height="60" as="geometry" />
        </mxCell>
        <mxCell id="wPh2RqfNVkivPKaVuqab-21" style="rounded=0;orthogonalLoop=1;jettySize=auto;html=1;entryX=0.5;entryY=0;entryDx=0;entryDy=0;entryPerimeter=0;exitX=0.5;exitY=1;exitDx=0;exitDy=0;" edge="1" parent="1" source="wPh2RqfNVkivPKaVuqab-1" target="wPh2RqfNVkivPKaVuqab-5">
          <mxGeometry relative="1" as="geometry" />
        </mxCell>
        <mxCell id="wPh2RqfNVkivPKaVuqab-22" value="&lt;b&gt;Search Criteria&lt;/b&gt;" style="edgeLabel;html=1;align=center;verticalAlign=middle;resizable=0;points=[];" vertex="1" connectable="0" parent="wPh2RqfNVkivPKaVuqab-21">
          <mxGeometry x="0.0019" y="4" relative="1" as="geometry">
            <mxPoint as="offset" />
          </mxGeometry>
        </mxCell>
        <mxCell id="wPh2RqfNVkivPKaVuqab-25" style="rounded=0;orthogonalLoop=1;jettySize=auto;html=1;exitX=0;exitY=0.75;exitDx=0;exitDy=0;entryX=1;entryY=0.5;entryDx=0;entryDy=0;entryPerimeter=0;" edge="1" parent="1" source="wPh2RqfNVkivPKaVuqab-16" target="wPh2RqfNVkivPKaVuqab-5">
          <mxGeometry relative="1" as="geometry" />
        </mxCell>
        <mxCell id="wPh2RqfNVkivPKaVuqab-26" value="&lt;b&gt;Property Results&lt;/b&gt;" style="edgeLabel;html=1;align=center;verticalAlign=middle;resizable=0;points=[];" vertex="1" connectable="0" parent="wPh2RqfNVkivPKaVuqab-25">
          <mxGeometry x="0.1468" y="-1" relative="1" as="geometry">
            <mxPoint as="offset" />
          </mxGeometry>
        </mxCell>
        <mxCell id="wPh2RqfNVkivPKaVuqab-30" style="rounded=0;orthogonalLoop=1;jettySize=auto;html=1;exitX=1;exitY=1;exitDx=0;exitDy=0;entryX=0.145;entryY=0.145;entryDx=0;entryDy=0;entryPerimeter=0;" edge="1" parent="1" source="wPh2RqfNVkivPKaVuqab-1" target="wPh2RqfNVkivPKaVuqab-6">
          <mxGeometry relative="1" as="geometry" />
        </mxCell>
        <mxCell id="wPh2RqfNVkivPKaVuqab-31" value="&lt;b&gt;Booking Request&lt;/b&gt;" style="edgeLabel;html=1;align=center;verticalAlign=middle;resizable=0;points=[];" vertex="1" connectable="0" parent="wPh2RqfNVkivPKaVuqab-30">
          <mxGeometry x="0.0062" y="2" relative="1" as="geometry">
            <mxPoint as="offset" />
          </mxGeometry>
        </mxCell>
        <mxCell id="wPh2RqfNVkivPKaVuqab-34" style="rounded=0;orthogonalLoop=1;jettySize=auto;html=1;exitX=0.855;exitY=0.855;exitDx=0;exitDy=0;exitPerimeter=0;entryX=0.145;entryY=0.145;entryDx=0;entryDy=0;entryPerimeter=0;" edge="1" parent="1" source="wPh2RqfNVkivPKaVuqab-6" target="wPh2RqfNVkivPKaVuqab-7">
          <mxGeometry relative="1" as="geometry" />
        </mxCell>
        <mxCell id="wPh2RqfNVkivPKaVuqab-35" value="&lt;b&gt;Payment&lt;br&gt;Required&lt;/b&gt;" style="edgeLabel;html=1;align=center;verticalAlign=middle;resizable=0;points=[];" vertex="1" connectable="0" parent="wPh2RqfNVkivPKaVuqab-34">
          <mxGeometry x="-0.1482" y="1" relative="1" as="geometry">
            <mxPoint as="offset" />
          </mxGeometry>
        </mxCell>
        <mxCell id="wPh2RqfNVkivPKaVuqab-36" style="rounded=0;orthogonalLoop=1;jettySize=auto;html=1;exitX=0;exitY=0.5;exitDx=0;exitDy=0;exitPerimeter=0;entryX=1.029;entryY=0.4;entryDx=0;entryDy=0;entryPerimeter=0;" edge="1" parent="1" source="wPh2RqfNVkivPKaVuqab-7" target="wPh2RqfNVkivPKaVuqab-9">
          <mxGeometry relative="1" as="geometry" />
        </mxCell>
        <mxCell id="wPh2RqfNVkivPKaVuqab-37" value="&lt;b&gt;Process&lt;br&gt;Payment&lt;/b&gt;" style="edgeLabel;html=1;align=center;verticalAlign=middle;resizable=0;points=[];" vertex="1" connectable="0" parent="wPh2RqfNVkivPKaVuqab-36">
          <mxGeometry x="-0.2082" y="-6" relative="1" as="geometry">
            <mxPoint as="offset" />
          </mxGeometry>
        </mxCell>
        <mxCell id="wPh2RqfNVkivPKaVuqab-46" style="rounded=0;orthogonalLoop=1;jettySize=auto;html=1;exitX=0;exitY=0.5;exitDx=0;exitDy=0;entryX=0.989;entryY=0.308;entryDx=0;entryDy=0;entryPerimeter=0;" edge="1" parent="1" source="wPh2RqfNVkivPKaVuqab-1" target="wPh2RqfNVkivPKaVuqab-4">
          <mxGeometry relative="1" as="geometry" />
        </mxCell>
        <mxCell id="wPh2RqfNVkivPKaVuqab-53" style="rounded=0;orthogonalLoop=1;jettySize=auto;html=1;exitX=1;exitY=0;exitDx=0;exitDy=0;entryX=0.145;entryY=0.855;entryDx=0;entryDy=0;entryPerimeter=0;" edge="1" parent="1" source="wPh2RqfNVkivPKaVuqab-1" target="wPh2RqfNVkivPKaVuqab-8">
          <mxGeometry relative="1" as="geometry" />
        </mxCell>
      </root>
    </mxGraphModel>
  </diagram>
</mxfile>
